<svg fill="none" height="73" viewBox="0 0 463 73" width="463" xmlns="http://www.w3.org/2000/svg"><g clip-path="url(#clip0_6838_179690)"><path d="M35.84 0.22998C27.14 0.22998 19.39 3.15998 13.73 7.98998V17.63C18.55 12.39 26.41 7.77998 35.95 7.77998C51.46 7.77998 63.41 19.94 63.41 36.29V58.82C68.55 53.37 71.8 45.51 71.8 36.29C71.79 15.53 55.76 0.22998 35.84 0.22998Z" fill="white"></path><path d="M8.49 35.66V13.12C3.35 18.57 0 26.43 0 35.66C0 56.41 16.04 71.71 35.95 71.71C44.65 71.71 52.4 68.78 58.17 63.95V54.31C53.24 59.55 45.28 64.16 35.85 64.16C20.34 64.16 8.49 51.9 8.49 35.65V35.66Z" fill="white"></path><path d="M119.66 1.37997H95.34V70.55H103.52V8.50997H119.56C128.68 8.50997 133.4 14.17 133.4 21.51C133.4 28.85 128.68 34.4 119.56 34.4H108.66V41.53H119.66C133.29 41.53 141.77 33.14 141.77 21.41C141.77 9.67998 133.29 1.37997 119.66 1.37997Z" fill="white"></path><path d="M200.37 16.48L206.35 11.97C202.16 5.25998 194.19 0.22998 184.97 0.22998C182.24 0.22998 179.73 0.64998 177.42 1.37998V9.13998C179.73 8.19998 182.45 7.77998 184.76 7.77998C191.05 7.77998 196.71 10.92 200.38 16.48H200.37Z" fill="white"></path><path d="M191.04 33.14L183.39 29.47C177.1 26.43 172.28 24.13 172.28 16.79V3.78998C167.25 6.82998 163.79 11.86 163.79 18.36C163.79 28.11 171.34 32.93 179.41 36.81L187.17 40.48C193.98 43.73 198.7 46.24 198.7 53.69V67.84C203.94 64.49 207.19 59.25 207.19 52.43C207.19 43.1 201.22 37.97 191.05 33.15L191.04 33.14Z" fill="white"></path><path d="M165.47 52.32L159.39 56.83C164.73 65.95 173.96 71.71 184.65 71.71C187.9 71.71 190.83 71.18 193.56 70.24V62.59C190.83 63.53 187.69 64.16 184.76 64.16C175.85 64.16 169.67 58.71 165.48 52.32H165.47Z" fill="white"></path><path d="M223.13 1.37997L249.44 71.71H252.37L255.3 64.58L232.14 1.37997H223.13Z" fill="white"></path><path d="M299.95 46.87L304.35 57.67L325.32 1.37997H316.41L299.95 46.87Z" fill="white"></path><path d="M272.81 0.22998L254.26 46.66L258.13 57.35L274.27 16.89L296.18 71.71H299.22L301.63 65L275.74 0.22998H272.81Z" fill="white"></path><path d="M350.28 49.75L361.28 24.18L356.99 14.01L332.67 71.13H341.26L347.13 57.09H375.43L372.29 49.75H350.28Z" fill="white"></path><path d="M362.64 0.809982L359.71 7.40998L386.96 71.13H395.66L365.69 0.809982H362.64Z" fill="white"></path><path d="M456.87 1.37997H399.96V8.71997H456.87V1.37997Z" fill="white"></path><path d="M432.45 13.85H424.27V70.55H432.45V13.85Z" fill="white"></path><path d="M456.96 61.2C454 61.2 451.55 63.67 451.55 66.72C451.55 69.77 454 72.22 456.96 72.22C459.92 72.22 462.33 69.75 462.33 66.72C462.33 63.69 459.93 61.2 456.96 61.2Z" fill="white"></path></g><defs><clipPath id="clip0_6838_179690"><rect fill="white" height="72" transform="translate(0 0.22998)" width="462.33"></rect></clipPath></defs></svg>